<svg width="158" height="158" viewBox="0 0 158 158" fill="none" xmlns="http://www.w3.org/2000/svg">
<path d="M27.2384 99.439L35.4182 44.3927L87.1795 23.9535L130.761 58.5605L122.581 113.607L70.82 134.046L27.2384 99.439Z" stroke="#E9E4F4"/>
<path d="M27.0328 57.0827L71.9971 23.0364L123.964 44.9535L130.967 100.917L86.0028 134.963L34.0357 113.046L27.0328 57.0827Z" stroke="#E9E4F4"/>
<path d="M83.7235 55.4215C83.7235 54.5875 83.8193 53.7765 84 53H63.5939C62.5019 53 61.5488 53.7677 61.279 54.8648L61 56H83.7389C83.7289 55.8084 83.7235 55.6155 83.7235 55.4215Z" fill="#EBE7F2"/>
<path d="M56 83H98V87H56V83Z" fill="#EBE7F2"/>
<path d="M58 89.3831V87V94H65V89.3831H58Z" fill="#EBE7F2"/>
<path d="M94.9998 87V89.7236H88V95H95V87H94.9998Z" fill="#EBE7F2"/>
<path d="M92.5 62.5009C88.0076 62.5009 84.2439 59.3004 83.2543 55C83.0882 55.7222 83 56.4752 83 57.2496C83 62.6345 87.2533 67 92.5 67C97.7467 67 102 62.6345 102 57.2496C102 56.4754 101.912 55.7222 101.746 55C100.756 59.3004 96.9922 62.5009 92.5 62.5009Z" fill="#EBE7F2"/>
<path d="M97.9164 57.2019C97.6582 56.7153 97.27 56.2919 96.762 55.944C96.2851 55.6168 95.564 55.2916 94.558 54.9498C93.492 54.5876 92.9999 54.2637 92.7758 54.0563C92.5125 53.8122 92.3843 53.4645 92.3843 52.9935C92.3843 52.499 92.5303 52.1219 92.8315 51.8399C93.143 51.5471 93.5888 51.4049 94.1952 51.4049C94.7732 51.4049 95.2088 51.5806 95.527 51.9418C95.8655 52.3265 96.0301 52.8516 96.0301 53.5464V53.8979C96.0301 54.0431 96.1477 54.1607 96.2927 54.1607H97.9546C98.0995 54.1607 98.2171 54.0431 98.2171 53.8979V53.5464C98.2171 52.3344 97.9072 51.3492 97.2968 50.6184C96.8236 50.0512 96.2029 49.6667 95.4459 49.4707C95.3285 49.4404 95.2442 49.3382 95.2442 49.2171V47.974C95.2442 47.8288 95.1266 47.7115 94.9817 47.7115H93.4568C93.3119 47.7115 93.1943 47.8291 93.1943 47.974V49.206C93.1943 49.3291 93.1075 49.4326 92.9878 49.4613C92.2648 49.6343 91.6587 49.9663 91.1796 50.4527C90.5275 51.1142 90.1971 51.9764 90.1971 53.0149C90.1971 54.0044 90.4994 54.8295 91.0955 55.4684C91.6635 56.0767 92.5855 56.5752 93.8975 56.9867C95.0022 57.3693 95.4954 57.7059 95.7152 57.9214C95.9812 58.1817 96.1107 58.5164 96.1107 58.9444C96.1107 59.4211 95.9504 59.7793 95.6059 60.0718C95.2369 60.3854 94.7567 60.5379 94.1384 60.5379C93.4225 60.5379 92.8931 60.3616 92.5203 59.9991C92.1521 59.6409 91.9731 59.1404 91.9731 58.4691V58.1177C91.9731 57.9727 91.8555 57.8549 91.7106 57.8549H90.0408C89.8959 57.8549 89.7783 57.9725 89.7783 58.1177V58.4691C89.7783 59.6874 90.1347 60.6728 90.8379 61.3987C91.3789 61.9568 92.0885 62.3258 92.9548 62.5005C93.0786 62.5253 93.17 62.631 93.17 62.7573V63.8644C93.17 64.0093 93.2876 64.127 93.4325 64.127H94.9498C95.0947 64.127 95.2123 64.0093 95.2123 63.8644V62.7343C95.2123 62.61 95.3007 62.5059 95.4221 62.4786C96.1748 62.3093 96.8031 61.9806 97.2962 61.4972C97.9662 60.8402 98.306 59.9753 98.306 58.9279C98.306 58.2701 98.1749 57.6897 97.9164 57.2019Z" fill="#FF8C8C"/>
<rect x="-0.164712" y="-0.614713" width="19.4162" height="2.8303" transform="matrix(0.866024 0.500002 -0.499998 0.866026 85.0944 51.2646)" fill="#5B4A58" stroke="white" stroke-width="0.9"/>
<path d="M96.9051 67.991C96.6281 68.1875 96.5618 68.5725 96.7573 68.851C97.3467 69.6902 97.6581 70.6791 97.6581 71.7104V86.2908H56.2714V71.7104C56.2714 68.9722 58.4876 66.7446 61.2118 66.7446H85.1508C85.4899 66.7446 85.7647 66.4684 85.7647 66.1275C85.7647 65.7866 85.4899 65.5104 85.1508 65.5104H59.744L61.5677 58.3159H80.925C81.2642 58.3159 81.539 58.0396 81.539 57.6988C81.539 57.3579 81.2642 57.0816 80.925 57.0816H61.8806L62.5169 54.5715C62.62 54.1642 62.8661 53.824 63.193 53.5992C63.2303 53.5735 63.2686 53.5493 63.3081 53.5268C63.3474 53.5044 63.3877 53.4834 63.429 53.4639C63.4393 53.4589 63.4496 53.4543 63.4601 53.4498C63.481 53.4407 63.5019 53.4318 63.5233 53.4234C63.5869 53.3982 63.6524 53.3767 63.7195 53.3595C63.7418 53.3538 63.7642 53.3484 63.787 53.3434C63.9002 53.3192 64.0174 53.3064 64.1367 53.3064H81.5903C81.9295 53.3064 82.2043 53.0302 82.2043 52.6893C82.2043 52.3484 81.9295 52.0722 81.5903 52.0722H64.1367C62.8101 52.0722 61.6546 52.9746 61.327 54.2669L59.2599 62.4226C58.7354 61.7835 57.9416 61.3758 57.0551 61.3758H53.8576C52.2819 61.3758 51 62.6643 51 64.2483C51 65.8321 52.2819 67.1206 53.8576 67.1206H57.0551C57.0603 67.1206 57.0652 67.1203 57.0703 67.1203C55.8264 68.2553 55.044 69.8929 55.044 71.7107V86.9082C55.044 87.2491 55.3188 87.5253 55.658 87.5253H57.5359V94.3829C57.5359 94.7238 57.8108 95 58.1499 95H65.428C65.7672 95 66.042 94.7238 66.042 94.3829V87.5253H87.8881V94.3829C87.8881 94.7238 88.1629 95 88.502 95H95.7801C96.1193 95 96.3941 94.7238 96.3941 94.3829V87.5253H98.272C98.6112 87.5253 98.886 87.2491 98.886 86.9082V71.7107C98.886 70.4234 98.4967 69.1884 97.7607 68.1398C97.565 67.8611 97.1819 67.795 96.9051 67.991ZM53.8574 65.8861C52.9588 65.8861 52.2277 65.1513 52.2277 64.2478C52.2277 63.3446 52.9588 62.6097 53.8574 62.6097H57.0549C57.9537 62.6097 58.6848 63.3446 58.6848 64.2481C58.6848 65.1513 57.9537 65.8861 57.0549 65.8861H53.8574ZM64.8138 93.7655H58.7636V87.525H64.8138V93.7655ZM95.1659 93.7655H89.1157V87.525H95.1659V93.7655ZM61.2295 77.6384H66.7291C67.4828 77.6384 68.1817 77.2968 68.6471 76.7009C69.1125 76.105 69.2765 75.3413 69.0975 74.6054L68.7903 73.3428C68.5226 72.2426 67.5486 71.4744 66.4216 71.4744H60.922C60.1684 71.4744 59.4692 71.8163 59.0038 72.4122C58.5384 73.0081 58.3744 73.7718 58.5536 74.5077L58.8609 75.7703C59.1288 76.87 60.1025 77.6384 61.2295 77.6384ZM59.9699 73.174C60.201 72.8782 60.548 72.7084 60.922 72.7084H66.4216C66.9811 72.7084 67.4646 73.0898 67.5975 73.6358L67.9047 74.8984C67.9936 75.2638 67.9121 75.6429 67.681 75.9386C67.4501 76.2343 67.1029 76.4042 66.7289 76.4042H61.2295C60.6701 76.4042 60.1865 76.0228 60.0537 75.4768L59.7464 74.2142C59.6575 73.8488 59.7388 73.4697 59.9699 73.174ZM94.9255 72.412C94.4601 71.8161 93.7609 71.4742 93.0072 71.4742H87.5076C86.3809 71.4742 85.4069 72.2426 85.139 73.3428L84.8318 74.6054C84.6525 75.3413 84.8168 76.105 85.2822 76.7009C85.7475 77.2968 86.4465 77.6384 87.2002 77.6384H92.6998C93.8265 77.6384 94.8005 76.87 95.0684 75.7698L95.3756 74.5074C95.5549 73.7716 95.3909 73.0078 94.9255 72.412ZM94.1831 74.2142L93.8759 75.4765C93.7427 76.0226 93.2594 76.4042 92.7 76.4042H87.2004C86.8264 76.4042 86.4791 76.2343 86.2483 75.9386C86.0174 75.6429 85.9359 75.2638 86.0246 74.8984L86.3318 73.6361C86.4649 73.09 86.9482 72.7084 87.5076 72.7084H93.0072C93.3812 72.7084 93.7285 72.8782 93.9594 73.174C94.1907 73.4697 94.272 73.8488 94.1831 74.2142ZM73.8213 77.6384H80.1082C81.5068 77.6384 82.7276 76.6876 83.0773 75.3265C83.316 74.3966 83.1174 73.428 82.5324 72.6687C81.9472 71.9094 81.0638 71.4739 80.1082 71.4739H73.8213C72.8657 71.4739 71.9824 71.9094 71.3971 72.6687C70.8122 73.4277 70.6135 74.3966 70.8522 75.3265C71.2019 76.6878 72.4227 77.6384 73.8213 77.6384ZM72.3679 73.4248C72.7189 72.9696 73.2486 72.7084 73.8213 72.7084H80.1082C80.6809 72.7084 81.2109 72.9696 81.5616 73.4248C81.9123 73.8799 82.0314 74.4605 81.8882 75.0181C81.6787 75.8345 80.9466 76.4044 80.1082 76.4044H73.8213C72.9826 76.4044 72.2508 75.8345 72.0413 75.0184C71.8981 74.4605 72.017 73.8799 72.3679 73.4248ZM58.5836 80.529C58.5836 80.1881 58.8584 79.9118 59.1976 79.9118H94.7317C95.0709 79.9118 95.3457 80.1881 95.3457 80.529C95.3457 80.8699 95.0709 81.1461 94.7317 81.1461H59.1976C58.8584 81.1461 58.5836 80.8699 58.5836 80.529ZM92.8901 47C87.3156 47 82.7802 51.5585 82.7802 57.1619C82.7802 62.7653 87.3153 67.3237 92.8901 67.3237C98.4648 67.3237 103 62.7653 103 57.1619C103 51.5585 98.4646 47 92.8901 47ZM92.8901 66.0895C87.9927 66.0895 84.0081 62.0845 84.0081 57.1619C84.0081 52.2393 87.9924 48.2342 92.8901 48.2342C97.7877 48.2342 101.772 52.239 101.772 57.1619C101.772 62.0847 97.7875 66.0895 92.8901 66.0895Z" fill="#5B4A58"/>
</svg>
