<svg width="52" height="10" viewBox="0 0 52 10" fill="none" xmlns="http://www.w3.org/2000/svg">
<path d="M51.5 5C51.5 5.63876 51.2704 6.41015 50.9504 7.07634C50.7924 7.40511 50.6195 7.69326 50.4562 7.91274C50.2829 8.14581 50.154 8.25561 50.0968 8.28635C49.9896 8.34393 49.8721 8.41095 49.7442 8.48393C49.4522 8.65059 49.1056 8.84835 48.7019 9.03579C48.1284 9.30211 47.5308 9.5 47 9.5C45.6157 9.5 44.4407 8.60427 43.53 7.59609C42.9153 6.79753 42.5 5.98703 42.5 5C42.5 3.91184 43.0586 3.07134 43.8309 2.20846C44.7096 1.22672 45.7298 0.5 47 0.5C47.5339 0.5 48.0397 0.708704 48.5421 1.01345C48.7922 1.16516 49.0312 1.33408 49.2685 1.50464C49.2938 1.52283 49.3192 1.54112 49.3447 1.55947C49.5516 1.70849 49.7633 1.86095 49.9642 1.9865C50.2869 2.18822 50.6773 2.61461 50.989 3.1813C51.2976 3.7424 51.5 4.38895 51.5 5Z" fill="white" fill-opacity="0.49" stroke="#7E6579"/>
<path d="M37.5 5C37.5 5.63876 37.2704 6.41015 36.9504 7.07634C36.7924 7.40511 36.6195 7.69326 36.4562 7.91274C36.2829 8.14581 36.154 8.25561 36.0968 8.28635C35.9896 8.34393 35.8721 8.41095 35.7442 8.48393C35.4522 8.65059 35.1056 8.84835 34.7019 9.03579C34.1284 9.30211 33.5308 9.5 33 9.5C31.6157 9.5 30.4407 8.60427 29.53 7.59609C28.9153 6.79753 28.5 5.98703 28.5 5C28.5 3.91184 29.0586 3.07134 29.8309 2.20846C30.7096 1.22672 31.7298 0.5 33 0.5C33.5339 0.5 34.0397 0.708704 34.5421 1.01345C34.7922 1.16516 35.0312 1.33408 35.2685 1.50464C35.2938 1.52283 35.3192 1.54112 35.3447 1.55947C35.5516 1.70849 35.7633 1.86095 35.9642 1.9865C36.2869 2.18822 36.6773 2.61461 36.989 3.1813C37.2976 3.7424 37.5 4.38895 37.5 5Z" fill="white" fill-opacity="0.5" stroke="#7E6579"/>
<path d="M23.5 5C23.5 5.63876 23.2704 6.41015 22.9504 7.07634C22.7924 7.40511 22.6195 7.69326 22.4562 7.91274C22.2829 8.14581 22.154 8.25561 22.0968 8.28635C21.9896 8.34393 21.8721 8.41095 21.7442 8.48393C21.4522 8.65059 21.1056 8.84835 20.7019 9.03579C20.1284 9.30211 19.5308 9.5 19 9.5C17.6157 9.5 16.4407 8.60427 15.53 7.59609C14.9153 6.79753 14.5 5.98703 14.5 5C14.5 3.91184 15.0586 3.07134 15.8309 2.20846C16.7096 1.22672 17.7298 0.5 19 0.5C19.5339 0.5 20.0397 0.708704 20.5421 1.01345C20.7922 1.16516 21.0312 1.33408 21.2685 1.50464C21.2938 1.52283 21.3192 1.54112 21.3447 1.55947C21.5516 1.70849 21.7633 1.86095 21.9642 1.9865C22.2869 2.18822 22.6773 2.61461 22.989 3.1813C23.2976 3.7424 23.5 4.38895 23.5 5Z" fill="white" fill-opacity="0.5" stroke="#7E6579"/>
<path d="M9.5 5C9.5 5.63876 9.27042 6.41015 8.95036 7.07634C8.7924 7.40511 8.61951 7.69326 8.45624 7.91274C8.28287 8.14581 8.15399 8.25561 8.09677 8.28635C7.98955 8.34393 7.87211 8.41095 7.74422 8.48393C7.45217 8.6506 7.10564 8.84835 6.70195 9.03579C6.12839 9.30211 5.5308 9.5 5 9.5C3.61568 9.5 2.44072 8.60427 1.53002 7.59609C0.915321 6.79753 0.5 5.98703 0.5 5C0.5 3.91184 1.0586 3.07134 1.8309 2.20846C2.70958 1.22672 3.72981 0.5 5 0.5C5.53386 0.5 6.03967 0.708704 6.5421 1.01345C6.79223 1.16516 7.03116 1.33408 7.26847 1.50464C7.29378 1.52283 7.31918 1.54112 7.34465 1.55947C7.55159 1.70849 7.76328 1.86095 7.96417 1.9865C8.28692 2.18822 8.67729 2.61461 8.98897 3.1813C9.29757 3.7424 9.5 4.38895 9.5 5Z" fill="white" stroke="#7E6579"/>
<path d="M8 5C8 5.8885 7.375 7.03471 7 7.23611C6.625 7.4375 5.76835 8 5 8C4.03345 8 3.25 7.375 2.6875 6.75C2.29565 6.24306 2 5.6903 2 5C2 4.23165 2.39996 3.65576 2.875 3.125C3.42432 2.51125 4.1115 2 5 2C5.79891 2 6.4375 2.625 6.9375 2.9375C7.4375 3.25 8 4.14205 8 5Z" fill="#7E6579"/>
</svg>
